HIERARCHY
ROOT hip
{
  OFFSET 0 0 0
  CHANNELS 6 Xposition Yposition Zposition Zrotation Yrotation Xrotation
  JOINT abdomen
  {
    OFFSET 0 20.6881 -0.73152
    CHANNELS 3 Zrotation Xrotation Yrotation
    JOINT chest
    {
      OFFSET 0 11.7043 -0.48768
      CHANNELS 3 Zrotation Xrotation Yrotation
      JOINT neck
      {
        OFFSET 0 22.1894 -2.19456
        CHANNELS 3 Zrotation Xrotation Yrotation
        JOINT head
        {
          OFFSET -0.24384 7.07133 1.2192
          CHANNELS 3 Zrotation Xrotation Yrotation
          JOINT leftEye
          {
            OFFSET 4.14528 8.04674 8.04672
            CHANNELS 3 Zrotation Xrotation Yrotation
            End Site
            {
              OFFSET 1 0 0
            }
          }
          JOINT rightEye
          {
            OFFSET -3.6576 8.04674 8.04672
            CHANNELS 3 Zrotation Xrotation Yrotation
            End Site
            {
              OFFSET 1 0 0
            }
          }
        }
      }
      JOINT rCollar
      {
        OFFSET -2.68224 19.2634 -4.8768
        CHANNELS 3 Zrotation Xrotation Yrotation
        JOINT rShldr
        {
          OFFSET -8.77824 -1.95073 1.46304
          CHANNELS 3 Zrotation Xrotation Yrotation
          JOINT rForeArm
          {
            OFFSET -28.1742 -1.7115 0.48768
            CHANNELS 3 Zrotation Xrotation Yrotation
            JOINT rHand
            {
              OFFSET -22.5879 0.773209 7.07136
              CHANNELS 3 Zrotation Xrotation Yrotation
              JOINT rThumb1
              {
                OFFSET -1.2192 -0.487915 3.41376
                CHANNELS 3 Zrotation Xrotation Yrotation
                JOINT rThumb2
                {
                  OFFSET -3.37035 -0.52449 3.41376
                  CHANNELS 3 Zrotation Xrotation Yrotation
                  End Site
                  {
                    OFFSET -1.78271 -1.18214 1.43049
                  }
                }
              }
              JOINT rIndex1
              {
                OFFSET -7.75947 0.938293 5.60832
                CHANNELS 3 Zrotation Xrotation Yrotation
                JOINT rIndex2
                {
                  OFFSET -2.54057 -0.884171 1.56538
                  CHANNELS 3 Zrotation Xrotation Yrotation
                  End Site
                  {
                    OFFSET -1.62519 -0.234802 1.16502
                  }
                }
              }
              JOINT rMid1
              {
                OFFSET -8.24714 1.18213 3.41376
                CHANNELS 3 Zrotation Xrotation Yrotation
                JOINT rMid2
                {
                  OFFSET -3.10165 -0.590103 1.0647
                  CHANNELS 3 Zrotation Xrotation Yrotation
                  End Site
                  {
                    OFFSET -2.48547 -0.328903 0.83742
                  }
                }
              }
              JOINT rRing1
              {
                OFFSET -8.82822 0.546677 1.51678
                CHANNELS 3 Zrotation Xrotation Yrotation
                JOINT rRing2
                {
                  OFFSET -2.60934 -0.819778 -0.0198488
                  CHANNELS 3 Zrotation Xrotation Yrotation
                  End Site
                  {
                    OFFSET -2.33842 -0.294052 0.168128
                  }
                }
              }
              JOINT rPinky1
              {
                OFFSET -8.27202 -0.0477905 -0.4584
                CHANNELS 3 Zrotation Xrotation Yrotation
                JOINT rPinky2
                {
                  OFFSET -1.82734 -0.647385 -0.700984
                  CHANNELS 3 Zrotation Xrotation Yrotation
                  End Site
                  {
                    OFFSET -1.69225 -0.51767 -0.607171
                  }
                }
              }
            }
          }
        }
      }
      JOINT lCollar
      {
        OFFSET 2.68224 19.2634 -4.8768
        CHANNELS 3 Zrotation Xrotation Yrotation
        JOINT lShldr
        {
          OFFSET 8.77824 -1.95073 1.46304
          CHANNELS 3 Zrotation Xrotation Yrotation
          JOINT lForeArm
          {
            OFFSET 28.1742 -1.7115 0.48768
            CHANNELS 3 Zrotation Xrotation Yrotation
            JOINT lHand
            {
              OFFSET 22.5879 0.773209 7.07136
              CHANNELS 3 Zrotation Xrotation Yrotation
              JOINT lThumb1
              {
                OFFSET 1.2192 -0.487915 3.41376
                CHANNELS 3 Zrotation Xrotation Yrotation
                JOINT lThumb2
                {
                  OFFSET 3.37035 -0.52449 3.41376
                  CHANNELS 3 Zrotation Xrotation Yrotation
                  End Site
                  {
                    OFFSET 1.78271 -1.18214 1.43049
                  }
                }
              }
              JOINT lIndex1
              {
                OFFSET 7.75947 0.938293 5.60832
                CHANNELS 3 Zrotation Xrotation Yrotation
                JOINT lIndex2
                {
                  OFFSET 2.54057 -0.884171 1.56538
                  CHANNELS 3 Zrotation Xrotation Yrotation
                  End Site
                  {
                    OFFSET 1.62519 -0.234802 1.16502
                  }
                }
              }
              JOINT lMid1
              {
                OFFSET 8.24714 1.18213 3.41376
                CHANNELS 3 Zrotation Xrotation Yrotation
                JOINT lMid2
                {
                  OFFSET 3.10165 -0.590103 1.0647
                  CHANNELS 3 Zrotation Xrotation Yrotation
                  End Site
                  {
                    OFFSET 2.48547 -0.328903 0.83742
                  }
                }
              }
              JOINT lRing1
              {
                OFFSET 8.82822 0.546677 1.51678
                CHANNELS 3 Zrotation Xrotation Yrotation
                JOINT lRing2
                {
                  OFFSET 2.60934 -0.819778 -0.0198488
                  CHANNELS 3 Zrotation Xrotation Yrotation
                  End Site
                  {
                    OFFSET 2.33842 -0.294052 0.168128
                  }
                }
              }
              JOINT lPinky1
              {
                OFFSET 8.27202 -0.0477905 -0.4584
                CHANNELS 3 Zrotation Xrotation Yrotation
                JOINT lPinky2
                {
                  OFFSET 1.82734 -0.647385 -0.700984
                  CHANNELS 3 Zrotation Xrotation Yrotation
                  End Site
                  {
                    OFFSET 1.69225 -0.51767 -0.607171
                  }
                }
              }
            }
          }
        }
      }
    }
  }
  JOINT rButtock
  {
    OFFSET -8.77824 4.35084 1.2192
    CHANNELS 3 Zrotation Xrotation Yrotation
    JOINT rThigh
    {
      OFFSET 0 -1.70687 -2.19456
      CHANNELS 3 Zrotation Xrotation Yrotation
      JOINT rShin
      {
        OFFSET 0 -36.8199 0.73152
        CHANNELS 3 Zrotation Xrotation Yrotation
        JOINT rFoot
        {
          OFFSET 0.73152 -45.1104 -5.12064
          CHANNELS 3 Zrotation Xrotation Yrotation
          End Site
          {
            OFFSET -1.1221 -3.69964 12.103
          }
        }
      }
    }
  }
  JOINT lButtock
  {
    OFFSET 8.77824 4.35084 1.2192
    CHANNELS 3 Zrotation Xrotation Yrotation
    JOINT lThigh
    {
      OFFSET 0 -1.70687 -2.19456
      CHANNELS 3 Zrotation Xrotation Yrotation
      JOINT lShin
      {
        OFFSET 0 -36.8199 0.73152
        CHANNELS 3 Zrotation Xrotation Yrotation
        JOINT lFoot
        {
          OFFSET -0.73152 -45.1104 -5.12064
          CHANNELS 3 Zrotation Xrotation Yrotation
          End Site
          {
            OFFSET 1.1221 -3.69964 12.103
          }
        }
      }
    }
  }
}
MOTION
Frames:	4
Frame Time:	0.03333
-1.0299701243638992 33.36483836174011 2.622140944004059 -2.9584456394590712 3.2492802169600914 1.8422962526569613 -1.1058394296933873 8.669147594599691 1.5352146828328903 0.9993193212141592 -5.022951851478642 0.04023725805035336 -2.797645270593811 8.890718931274906 -2.9326384100104126 4.449416171117617 -14.215892139374626 -2.577044461110974 -0.508053162684232 0.07603292545874808 -0.2481701476960796 0.14238489820243613 -0.330535558979822 -0.24819114519169208 0.8818257667813652 0.24606220724391084 0.48070604574285286 26.91314806585757 16.319285606546842 8.750107534379145 -13.499602517152573 -15.99224248870829 35.86101348237068 -1.8526570092976358 -7.049059166871225 -4.169066360879389 0.2885980640738115 -0.0851050508526448 -1.221266104850312 -0.5890419173242465 -0.39780409108329423 1.2974305047804762 -0.16580783134180482 -1.511109024261211 -0.0725795978226455 5.130541845058329 2.6533999996161928 -0.2584159917400541 0.139277442274558 0.3568718346044656 -0.3319327862323392 1.5768081870007407 0.2837472957417802 0.11631019747866288 1.042516745898199 0.1507533206787298 -0.6714366237162259 5.546295886723828 1.5063067609444576 -0.3577752071634791 -0.6239422096314547 -0.10686153789644938 0.6949390912068283 2.050113936221296 0.3345131036347231 0.016461209466980303 1.0454701623839948 -0.37571990170167446 -1.029716010898243 -31.128122689469553 17.12390750398373 -13.50496933829291 12.276484683985245 -16.28128926419406 -33.74163651876699 3.1453561139739974 -6.480257661378665 3.6533866516566036 -0.5437228651292715 -0.2163631840309467 -0.5941952416921683 -0.2521681829184907 0.25825262748892913 0.14130167288875442 -0.43908983653209743 -0.26078195859637593 0.5190835446678322 -3.333324414036629 2.487671649264769 -0.7759411860600656 -0.7564280292924268 -0.4173780258623756 0.5068593203225077 -2.4614537546922635 1.1328797217306446 -0.46249046483495776 -0.7682968169966462 0.8330656866268789 -0.9430655630448168 -5.322392894220702 -0.8186445426071902 0.4670357956450426 -0.5998667533025118 -0.4663256694147728 -0.6775389708528092 -1.033012644389832 -0.9163689149001757 -0.763446475551438 0.7731680225353347 -1.010699590310164 0.7438046657674796 -16.183241898658526 -20.397190286347715 -13.79153760888361 -2.738618989229973 33.965034931045174 3.9876381803904564 -1.7173873539413547 -5.754060422878685 -5.141739940202565 0.14734841801662554 0.1332480661043028 -1.140368383825329 20.84555122422403 -18.776540075560014 17.42423775197836 3.6673484120937556 35.06596238750827 -2.3478032488846594 2.91608181801889 -6.11495822711205 7.5972638100347885
-1.693476177752018 40.156400203704834 4.785234108567238 -3.7382816341716305 3.833096185795632 1.9758879226332406 -1.272184631504228 10.166570947476608 2.3628456733145544 1.2245775726590045 -6.118158170738201 0.3558283898066139 -3.377602395991706 10.443810033434717 -2.9726088904767387 5.379614511539776 -16.67092082049202 -3.280108275778944 -0.4376852454818813 0.1624390539771076 -0.16036466416119388 0.2041036348010085 -0.33012025146177354 -0.15797344428124152 0.6627772245091191 0.22662871822963784 0.25429349232827536 32.19039469032496 19.73982043722713 10.489621819745285 -16.08404023115326 -19.1216831946991 43.107290946431434 -2.507007487918252 -7.993174017727284 -4.452053477910888 0.20707308622309797 -0.07425470838669775 -0.8524529651425484 -0.3342686042067778 -0.18828078121715994 0.9503503866814585 -0.016023677153702804 -1.0912503590696516 -0.08238129280758404 5.936919527998735 3.294435024449869 -0.08595667672456754 0.020968974236630043 0.16403323613764442 -0.24444411942127897 2.0016765825050933 0.4010762853042592 0.204770672142569 0.7935017624987271 0.09359709708487306 -0.5828054743643489 6.626215388847252 1.2237126999553516 -0.413511098255517 -0.4214060232036848 -0.07149140327953835 0.6022542779434015 2.0506486119672616 0.0999920484582826 0.07915580934321824 0.8394057030022374 -0.28283122329977867 -0.9011407947022207 -37.69137782143445 20.65335140852717 -16.51979605491632 14.744479625468266 -18.89619303698759 -40.724429190310744 3.6873595857014236 -8.131376065393322 3.7145091607654015 -0.3975408886764107 -0.2638006354052571 -0.6184167466754731 -0.18634849135249423 0.3443455611513531 -0.05259747252926991 -0.5036578292316229 -0.3082022544564819 0.36811565999962886 -4.391305775432794 3.196207512674977 -0.7829544029554936 -0.6119821215079393 -0.4280987014557982 0.31832811662273164 -2.5747584821731353 1.0842787636394784 -0.4377193964277314 -0.5643249034609984 0.7281006734834451 -0.7588601636063331 -6.599395370410727 -0.3973165863312845 0.3962642569514266 -0.44643378399374206 -0.48960210033253004 -0.7008528610892958 -1.3087327603095549 -0.9266437605676964 -0.6741475151256334 0.6284881807717743 -0.8116243354400337 0.642030738348617 -19.92517811092294 -24.073080276885396 -17.033976110729466 -3.3955668607258973 40.92191386487791 4.575761437271336 -2.3639882358966506 -6.799229630052376 -6.292322445044825 0.22515515827706048 0.09843848724700884 -0.862626211746165 25.19457684803398 -22.298351243705962 20.63078275596215 4.141337073509607 41.66785589960793 -3.3523563092720465 3.643563985856479 -7.1633845807461904 9.172345560001101
-2.1378460340201855 45.38416266441345 6.523494049906731 -4.33687557105014 4.323931081912496 2.072519518019877 -1.492926633803814 11.285937353377793 2.867997499705412 1.4399065433196496 -6.982212959237956 0.6072263354940535 -3.797777277597496 11.670392480058531 -3.0664736189192854 6.1121744981384465 -18.613071450606807 -3.7228953524057076 -0.32680662253853887 0.18268859051463843 -0.09621089842244586 0.19606372841553657 -0.3003188287721121 -0.09635115742426913 0.4933135077336386 0.17421835553102927 0.1383741897774635 36.2163745645081 22.42524079055917 11.900346166392644 -18.064733618754428 -21.587980834173372 48.798327506291116 -2.9856349149975996 -8.72345272114317 -4.643025567104445 0.17793960800949618 -0.06044207819316178 -0.6155680241830489 -0.20819675906327087 -0.06503097813963188 0.6842632920906868 0.03623994319945629 -0.7894838503586141 -0.05712933639410643 6.485245833906889 3.7909270247467965 0.04638824360434652 -0.06095981186833404 0.10836489988536621 -0.1864325747164368 2.297267106102558 0.5206944020948975 0.25452446478001284 0.5884900593836506 0.0526467512769145 -0.47308013953453365 7.495925147092955 1.0664777965585444 -0.3861812168696217 -0.3191861057763616 -0.04365912946367686 0.48935968197784746 2.1154239916215465 -0.10126715939895936 0.07576029819122276 0.7107065829058027 -0.2253768993012479 -0.7679433013462451 -42.759231336516756 23.40124067200814 -18.86247922324441 16.724262890362528 -21.019181463114926 -46.16895056264633 4.071560714722403 -9.481310020880276 3.753522347530868 -0.2999390595820888 -0.24713748179051184 -0.5528900995733392 -0.1137252376820775 0.3613619102513821 -0.14704788969314497 -0.4523530233636308 -0.2808023102707411 0.24981235462421808 -5.219753507128805 3.7566194114326454 -0.77295639339277 -0.48035429100059723 -0.3920656649634257 0.15621821906668046 -2.6648136726061074 1.0608317914358825 -0.3652033313705589 -0.4141294171383883 0.6072612868526969 -0.609877089222253 -7.529795201413402 -0.08180229420318662 0.3489707464777889 -0.3070956837696605 -0.44182700816155357 -0.6443144761306342 -1.5283443663015037 -0.906780716687653 -0.5617865810498396 0.49490456828428137 -0.6468318277266071 0.540219404971878 -22.898325305683638 -27.019862941449848 -19.665388450746917 -3.9005912614000517 46.29431526976733 4.9906228585896795 -2.898265269568912 -7.651883979053734 -7.221850146267854 0.19554108554189836 0.05080488137747213 -0.6684181603507564 28.50896200127581 -25.04496155426485 23.197021430919342 4.46419883491564 46.82800234585003 -4.140715526295136 4.078258568977247 -7.96273357214383 10.344127691366612
-2.448906470090151 49.48536157608032 7.9191830940544605 -4.814643888397947 4.738151319222505 2.1447869748634316 -1.7292404001939714 12.142013627153327 3.1859131369352984 1.6434794777582336 -7.658318871025532 0.8072080845330915 -4.113135649313447 12.639024294940352 -3.16708870869592 6.701408941419922 -20.16527633572181 -3.997502681099247 -0.21138821831381222 0.17421528728198804 -0.05220967253088657 0.1693861567758039 -0.27347738595315196 -0.053573095683097476 0.34923242810036503 0.10856655054844026 0.07651167236077705 39.31288863605757 24.53890942356402 13.05978614592794 -19.60016185172059 -23.563473032721575 53.29130790459555 -3.353063233851143 -9.291323186474493 -4.7803110887612315 0.16907210147611557 -0.04907364186628546 -0.45340556618690037 -0.14940889399014798 0.007650879087472096 0.4877463699515493 0.026800141518822648 -0.5612332290053628 -0.025457162243375502 6.8681308708521716 4.182591842983307 0.14375210997520227 -0.11088449263716044 0.09430111349748682 -0.15221065893202837 2.4988883139858107 0.6223887684821 0.2793475066579548 0.4379359347687619 0.03570766869187131 -0.3630274892330867 8.198665381548995 0.9760216526769515 -0.33588567817320475 -0.26360453427088365 -0.021948466052292184 0.38792891820392517 2.193735952437151 -0.26723093783333735 0.04233975569552725 0.6075655504358798 -0.1860143857123322 -0.6354245580390395 -46.7019375443391 25.57281564879636 -20.716679214964234 18.32661673191106 -22.75550605013867 -50.479298532733786 4.343299363964537 -10.603310318480148 3.791903314911285 -0.22490356185568072 -0.20464911611968392 -0.4434624649418014 -0.052975400769868466 0.34746420951812507 -0.17648829953257425 -0.3701695992686722 -0.22894313850206724 0.16474325564620843 -5.879207417719889 4.190030772763097 -0.7453933784405952 -0.3611901149855004 -0.33548037581507323 0.030446795524948323 -2.726851427063687 1.0436255844212683 -0.2810727430731913 -0.2973617837483197 0.4941390001278581 -0.48480255841927383 -8.23212818584018 0.15401884479308348 0.29788653437564705 -0.20014479312504563 -0.3732069790564916 -0.5588403149183311 -1.7037499207680722 -0.8582990201026975 -0.45736430114115745 0.37576195005375235 -0.5009595309834977 0.4566073240820496 -25.282003269410144 -29.38569362087511 -21.798535075717353 -4.296575747399772 50.49295208088464 5.319709910537356 -3.336245600567279 -8.341868835234775 -7.98123996969998 0.12231510769786769 0.011737453305042127 -0.5293725309613689 31.07880189347289 -27.219316418045267 25.260696494294287 4.675451036415434 50.90270537447746 -4.772611331132512 4.342099811991553 -8.566131266442975 11.242265977598377
